<svg width="36" height="24" viewBox="0 0 36 24" fill="none" xmlns="http://www.w3.org/2000/svg">
<g clip-path="url(#clip0_11_639)">
<path d="M0.66113 9.71423C0.403383 9.71423 0.26563 10.0178 0.435358 10.2118L3.77423 14.0276C3.89375 14.1642 4.10625 14.1642 4.22577 14.0276L7.56464 10.2118C7.73437 10.0178 7.59662 9.71423 7.33887 9.71423H0.66113Z" fill="#1A1A1A"/>
<path d="M32.75 19H34.25L31.25 9H29.75L26.75 19H28.25L29 16.5H32L32.75 19ZM29.45 15L30.5 11.5L31.55 15H29.45ZM23.75 19H25.75L20.75 5H18.75L13.75 19H15.75L17.18 15H22.32L23.75 19ZM17.89 13L19.75 7.8L21.61 13H17.89Z" fill="#1A1A1A"/>
</g>
</svg>
