<svg width="14" height="14" viewBox="0 0 14 14" fill="none" xmlns="http://www.w3.org/2000/svg">
<path d="M5.72016 6.24004C5.7535 6.02004 5.82683 5.82671 5.92016 5.66004C6.0135 5.49337 6.14683 5.35337 6.3135 5.24671C6.4735 5.14671 6.6735 5.10004 6.92016 5.09337C7.0735 5.10004 7.2135 5.12671 7.34016 5.18004C7.4735 5.24004 7.5935 5.32004 7.68683 5.42004C7.78016 5.52004 7.8535 5.64004 7.9135 5.77337C7.9735 5.90671 8.00016 6.05337 8.00683 6.20004H9.20016C9.18683 5.88671 9.12683 5.60004 9.0135 5.34004C8.90016 5.08004 8.74683 4.85337 8.54683 4.66671C8.34683 4.48004 8.10683 4.33337 7.82683 4.22671C7.54683 4.12004 7.24016 4.07337 6.90016 4.07337C6.46683 4.07337 6.08683 4.14671 5.76683 4.30004C5.44683 4.45337 5.18016 4.65337 4.96683 4.91337C4.7535 5.17337 4.5935 5.47337 4.4935 5.82004C4.3935 6.16671 4.3335 6.52671 4.3335 6.91337V7.09337C4.3335 7.48004 4.38683 7.84004 4.48683 8.18671C4.58683 8.53337 4.74683 8.83337 4.96016 9.08671C5.1735 9.34004 5.44016 9.54671 5.76016 9.69337C6.08016 9.84004 6.46016 9.92004 6.8935 9.92004C7.20683 9.92004 7.50016 9.86671 7.7735 9.76671C8.04683 9.66671 8.28683 9.52671 8.49349 9.34671C8.70016 9.16671 8.86683 8.96004 8.98683 8.72004C9.10683 8.48004 9.18016 8.22671 9.18683 7.95337H7.9935C7.98683 8.09337 7.9535 8.22004 7.8935 8.34004C7.8335 8.46004 7.7535 8.56004 7.6535 8.64671C7.5535 8.73337 7.44016 8.80004 7.30683 8.84671C7.18016 8.89337 7.04683 8.90671 6.90683 8.91337C6.66683 8.90671 6.46683 8.86004 6.3135 8.76004C6.14683 8.65337 6.0135 8.51337 5.92016 8.34671C5.82683 8.18004 5.7535 7.98004 5.72016 7.76004C5.68683 7.54004 5.66683 7.31337 5.66683 7.09337V6.91337C5.66683 6.68004 5.68683 6.46004 5.72016 6.24004ZM7.00016 0.333374C3.32016 0.333374 0.333496 3.32004 0.333496 7.00004C0.333496 10.68 3.32016 13.6667 7.00016 13.6667C10.6802 13.6667 13.6668 10.68 13.6668 7.00004C13.6668 3.32004 10.6802 0.333374 7.00016 0.333374ZM7.00016 12.3334C4.06016 12.3334 1.66683 9.94004 1.66683 7.00004C1.66683 4.06004 4.06016 1.66671 7.00016 1.66671C9.94016 1.66671 12.3335 4.06004 12.3335 7.00004C12.3335 9.94004 9.94016 12.3334 7.00016 12.3334Z" fill="white" fill-opacity="0.6"/>
</svg>
